<svg width="24" height="24" viewBox="0 0 24 24" fill="none" xmlns="http://www.w3.org/2000/svg">
<path d="M20.5 15.8V8.19998C20.4995 7.86732 20.4122 7.54056 20.2466 7.25203C20.081 6.96351 19.843 6.72323 19.556 6.55498L12.944 2.75498C12.6573 2.58849 12.3316 2.50079 12 2.50079C11.6684 2.50079 11.3427 2.58849 11.056 2.75498L4.444 6.55498C4.15635 6.72246 3.91774 6.96257 3.75207 7.25127C3.58639 7.53997 3.49947 7.86712 3.5 8.19998V15.802C3.50065 16.1345 3.58808 16.461 3.75364 16.7494C3.91921 17.0377 4.15717 17.2778 4.444 17.446L11.056 21.246C11.3427 21.4125 11.6684 21.5002 12 21.5002C12.3316 21.5002 12.6573 21.4125 12.944 21.246L19.556 17.446C19.8438 17.2784 20.0825 17.0382 20.2482 16.7493C20.4139 16.4604 20.5007 16.133 20.5 15.8Z" stroke="#020618" stroke-width="1.5" stroke-linecap="round" stroke-linejoin="round"/>
<path d="M8.66699 12.633L10.172 14.354C10.271 14.4673 10.3944 14.5568 10.5328 14.6159C10.6713 14.6749 10.8213 14.7019 10.9716 14.6949C11.1219 14.6879 11.2688 14.647 11.4011 14.5753C11.5335 14.5037 11.6479 14.4031 11.736 14.281L15.333 9.29999" stroke="#020618" stroke-width="1.5" stroke-linecap="round" stroke-linejoin="round"/>
</svg>
