<svg width="40" height="40" viewBox="0 0 40 40" fill="none" xmlns="http://www.w3.org/2000/svg">
<path d="M16.1881 6.06659C17.1564 5.24159 17.6414 4.82825 18.1481 4.58659C18.7264 4.31067 19.359 4.16748 19.9998 4.16748C20.6405 4.16748 21.2732 4.31067 21.8514 4.58659C22.3581 4.82825 22.8431 5.24159 23.8114 6.06659C24.8098 6.91659 25.8231 7.34659 27.1564 7.45159C28.4248 7.55325 29.0598 7.60492 29.5898 7.79159C30.8131 8.22492 31.7764 9.18659 32.2081 10.4116C32.3948 10.9399 32.4464 11.5749 32.5481 12.8449C32.6531 14.1783 33.0814 15.1899 33.9314 16.1883C34.7581 17.1566 35.1714 17.6416 35.4131 18.1483C35.9731 19.3199 35.9731 20.6816 35.4131 21.8516C35.1714 22.3583 34.7581 22.8433 33.9331 23.8116C33.1072 24.7383 32.6191 25.9172 32.5481 27.1566C32.4464 28.4249 32.3948 29.0599 32.2081 29.5899C31.9941 30.194 31.6478 30.7426 31.1945 31.1957C30.7412 31.6487 30.1923 31.9946 29.5881 32.2083C29.0598 32.3949 28.4248 32.4466 27.1548 32.5483C25.8214 32.6533 24.8098 33.0816 23.8114 33.9316C22.8431 34.7583 22.3581 35.1716 21.8514 35.4133C21.2732 35.6892 20.6405 35.8324 19.9998 35.8324C19.359 35.8324 18.7264 35.6892 18.1481 35.4133C17.6414 35.1716 17.1564 34.7583 16.1881 33.9333C15.2614 33.1073 14.0825 32.6192 12.8431 32.5483C11.5748 32.4466 10.9398 32.3949 10.4098 32.2083C9.80568 31.9943 9.25706 31.6479 8.80404 31.1946C8.35102 30.7413 8.00505 30.1925 7.79145 29.5883C7.60478 29.0599 7.55311 28.4249 7.45145 27.1549C7.38059 25.9164 6.89309 24.7381 6.06811 23.8116C5.24144 22.8433 4.82811 22.3583 4.58478 21.8516C4.30912 21.2732 4.16622 20.6405 4.1665 19.9997C4.16679 19.359 4.31027 18.7264 4.58644 18.1483C4.82811 17.6416 5.24144 17.1566 6.06644 16.1883C6.93311 15.1699 7.34811 14.1499 7.45145 12.8433C7.55311 11.5749 7.60478 10.9399 7.79145 10.4099C8.00544 9.80583 8.35175 9.25721 8.80506 8.80418C9.25837 8.35116 9.80722 8.00519 10.4114 7.79159C10.9398 7.60492 11.5748 7.55325 12.8448 7.45159C14.0833 7.38074 15.2616 6.89157 16.1881 6.06659Z" stroke="#020618" stroke-width="2.5" stroke-linecap="round" stroke-linejoin="round"/>
<path d="M14.4448 21.0551L16.9532 23.9235C17.1182 24.1123 17.3238 24.2615 17.5545 24.3599C17.7853 24.4583 18.0353 24.5033 18.2858 24.4916C18.5364 24.4799 18.7811 24.4118 19.0017 24.2924C19.2223 24.1729 19.4131 24.0052 19.5598 23.8018L25.5548 15.5001" stroke="#020618" stroke-width="2.5" stroke-linecap="round" stroke-linejoin="round"/>
</svg>
